{"title":"The Shaukeens (2014) - 1CD - DVDSCR-Rip - Hindi - x264 - MP3 - M","uid":11422434,"size":742456908,"categoryP":"video","categoryS":"movies_dvdr","magnet":"?xt=urn:btih:953b1c0cf9014368353b470b16a65eaa4709617a&amp;dn=The+Shaukeens+%282014%29+-+1CD+-+DVDSCR-Rip+-+Hindi+-+x264+-+MP3+-+M&amp;tr=udp%3A%2F%2Ftracker.openbittorrent.com%3A80&amp;tr=udp%3A%2F%2Fopen.demonii.com%3A1337&amp;tr=udp%3A%2F%2Ftracker.coppersurfer.tk%3A6969&amp;tr=udp%3A%2F%2Fexodus.desync.com%3A6969","seeders":7,"leechers":0,"uploader":"inovai","files":3,"time":1415632010,"description":"The Shaukeens (2014) - 1CD - DVDSCR-Rip - Hindi - x264 - MP3 - Mafiaking - Team TellyTNT\n\nCover:\n &lt;a href=&quot;\nhttp://forum.primetimeshow.in/viewtopic.php?f=7&amp;t=809&quot; rel=&quot;nofollow&quot; target=&quot;_NEW&quot;&gt;\nhttp://forum.primetimeshow.in/viewtopic.php?f=7&amp;t=809&lt;/a&gt;\n\nRatings: 7.0/10\n\nGENRE: Comedy\n\nScreenshots:\n &lt;a href=&quot;\nhttp://m.primetimeshow.in/share-E7B6_5460ABF9.html&quot; rel=&quot;nofollow&quot; target=&quot;_NEW&quot;&gt;\nhttp://m.primetimeshow.in/share-E7B6_5460ABF9.html&lt;/a&gt;\n &lt;a href=&quot;\nhttp://m.primetimeshow.in/share-D644_5460ABF9.html&quot; rel=&quot;nofollow&quot; target=&quot;_NEW&quot;&gt;\nhttp://m.primetimeshow.in/share-D644_5460ABF9.html&lt;/a&gt;\n &lt;a href=&quot;\nhttp://m.primetimeshow.in/share-1FDD_5460ABF9.html&quot; rel=&quot;nofollow&quot; target=&quot;_NEW&quot;&gt;\nhttp://m.primetimeshow.in/share-1FDD_5460ABF9.html&lt;/a&gt;\n &lt;a href=&quot;\nhttp://m.primetimeshow.in/share-CC76_5460ABF9.html&quot; rel=&quot;nofollow&quot; target=&quot;_NEW&quot;&gt;\nhttp://m.primetimeshow.in/share-CC76_5460ABF9.html&lt;/a&gt;\n &lt;a href=&quot;\nhttp://m.primetimeshow.in/share-1996_5460ABF9.html&quot; rel=&quot;nofollow&quot; target=&quot;_NEW&quot;&gt;\nhttp://m.primetimeshow.in/share-1996_5460ABF9.html&lt;/a&gt;\n\n\nGeneral\nUnique ID : 233818961197688617041746854164612637770 (0xAFE7E4D63640ADFFA441A5F0B365E44A)\nComplete name : The Shaukeens (2014) - 1CD - DVDSCR-Rip - Hindi - x264 - MP3 - Mafiaking - Team TellyTNT.mkv\nFormat : Matroska\nFormat version : Version 4 / Version 2\nFile size : 704 MiB\nDuration : 1h 58mn\nOverall bit rate : 828 Kbps\nMovie name : The Shaukeens (2014) - 1CD - DVDSCR-Rip - Hindi - x264 - MP3 - Mafiaking - Team TellyTNT\nEncoded date : UTC 2014-11-09 17:24:37\nWriting application : mkvmerge v7.0.0 ('Where We Going') 64bit built on Jun 9 2014 15:16:27\nWriting library : libebml v1.3.0 + libmatroska v1.4.1\n\n\nVideo\nID : 1\nFormat : AVC\nFormat/Info : Advanced Video Codec\nFormat profile : &lt;a class=&quot;__cf_email__&quot; href=&quot;/cdn-cgi/l/email-protection&quot; data-cfemail=&quot;2b63424c436b671f051a&quot;&gt;[email&amp;#160;protected]&lt;/a&gt;&lt;script cf-hash='f9e31' type=&quot;text/javascript&quot;&gt;\n/* &lt;![CDATA[ */!function(){try{var t=&quot;currentScript&quot;in document?document.currentScript:function(){for(var t=document.getElementsByTagName(&quot;script&quot;),e=t.length;e--;)if(t[e].getAttribute(&quot;cf-hash&quot;))return t[e]}();if(t&amp;&amp;t.previousSibling){var e,r,n,i,c=t.previousSibling,a=c.getAttribute(&quot;data-cfemail&quot;);if(a){for(e=&quot;&quot;,r=parseInt(a.substr(0,2),16),n=2;a.length-n;n+=2)i=parseInt(a.substr(n,2),16)^r,e+=String.fromCharCode(i);e=document.createTextNode(e),c.parentNode.replaceChild(e,c)}}}catch(u){}}();/* ]]&gt; */&lt;/script&gt;\nFormat settings, CABAC : Yes\nFormat settings, ReFrames : 4 frames\nCodec ID : V_MPEG4/ISO/AVC\nDuration : 1h 58mn\nBit rate : 730 Kbps\nWidth : 640 pixels\nHeight : 272 pixels\nDisplay aspect ratio : 2.35:1\nFrame rate mode : Constant\nFrame rate : 29.970 fps\nColor space : YUV\nChroma subsampling : 4:2:0\nBit depth : 8 bits\nScan type : Progressive\nBits/(Pixel*Frame) : 0.140\nStream size : 608 MiB (86%)\nTitle : Mafiaking\nWriting library : x264 core 142 r2431 ac76440\nLanguage : Hindi\nDefault : Yes\nForced : No\n\n\nAudio\nID : 2\nFormat : MPEG Audio\nFormat version : Version 1\nFormat profile : Layer 3\nMode : Joint stereo\nMode extension : MS Stereo\nCodec ID : A_MPEG/L3\nCodec ID/Hint : MP3\nDuration : 1h 58mn\nBit rate mode : Constant\nBit rate : 96.0 Kbps\nChannel(s) : 2 channels\nSampling rate : 32.0 KHz\nCompression mode : Lossy\nStream size : 81.6 MiB (12%)\nTitle : Mafiaking\nWriting library : LAME3.99r\nLanguage : Hindi\nDefault : Yes\nForced : No\n\nSAMPLE WITH IN TORRENT\n\nThanks to Mafiaking - Team TellyTNT!!\n\nSeed n Enjoy!!","torrent":{"xt":"urn:btih:953b1c0cf9014368353b470b16a65eaa4709617a","amp;dn":"The+Shaukeens+%282014%29+-+1CD+-+DVDSCR-Rip+-+Hindi+-+x264+-+MP3+-+M","amp;tr":["udp%3A%2F%2Ftracker.openbittorrent.com%3A80","udp%3A%2F%2Fopen.demonii.com%3A1337","udp%3A%2F%2Ftracker.coppersurfer.tk%3A6969","udp%3A%2F%2Fexodus.desync.com%3A6969"],"infoHash":"953b1c0cf9014368353b470b16a65eaa4709617a","infoHashBuffer":{"type":"Buffer","data":[149,59,28,12,249,1,67,104,53,59,71,11,22,166,94,170,71,9,97,122]},"announce":[],"urlList":[]}}